<svg width="33" height="19" viewBox="0 0 33 19" fill="none" xmlns="http://www.w3.org/2000/svg">
<path d="M8.75088 15.596C8.05488 15.596 7.43488 15.456 6.89088 15.176C6.34688 14.888 5.91888 14.492 5.60688 13.988C5.30288 13.484 5.15088 12.912 5.15088 12.272C5.15088 11.624 5.30288 11.052 5.60688 10.556C5.91888 10.052 6.34688 9.66 6.89088 9.38C7.43488 9.092 8.05488 8.948 8.75088 8.948C9.43088 8.948 10.0229 9.092 10.5269 9.38C11.0309 9.66 11.4029 10.064 11.6429 10.592L10.1909 11.372C10.0229 11.068 9.81088 10.844 9.55488 10.7C9.30688 10.556 9.03488 10.484 8.73888 10.484C8.41888 10.484 8.13088 10.556 7.87488 10.7C7.61888 10.844 7.41488 11.048 7.26288 11.312C7.11888 11.576 7.04688 11.896 7.04688 12.272C7.04688 12.648 7.11888 12.968 7.26288 13.232C7.41488 13.496 7.61888 13.7 7.87488 13.844C8.13088 13.988 8.41888 14.06 8.73888 14.06C9.03488 14.06 9.30688 13.992 9.55488 13.856C9.81088 13.712 10.0229 13.484 10.1909 13.172L11.6429 13.964C11.4029 14.484 11.0309 14.888 10.5269 15.176C10.0229 15.456 9.43088 15.596 8.75088 15.596ZM16.6807 15.5V14.24L16.5607 13.964V11.708C16.5607 11.308 16.4367 10.996 16.1887 10.772C15.9487 10.548 15.5767 10.436 15.0727 10.436C14.7287 10.436 14.3887 10.492 14.0527 10.604C13.7247 10.708 13.4447 10.852 13.2127 11.036L12.5407 9.728C12.8927 9.48 13.3167 9.288 13.8127 9.152C14.3087 9.016 14.8127 8.948 15.3247 8.948C16.3087 8.948 17.0727 9.18 17.6167 9.644C18.1607 10.108 18.4327 10.832 18.4327 11.816V15.5H16.6807ZM14.7127 15.596C14.2087 15.596 13.7767 15.512 13.4167 15.344C13.0567 15.168 12.7807 14.932 12.5887 14.636C12.3967 14.34 12.3007 14.008 12.3007 13.64C12.3007 13.256 12.3927 12.92 12.5767 12.632C12.7687 12.344 13.0687 12.12 13.4767 11.96C13.8847 11.792 14.4167 11.708 15.0727 11.708H16.7887V12.8H15.2767C14.8367 12.8 14.5327 12.872 14.3647 13.016C14.2047 13.16 14.1247 13.34 14.1247 13.556C14.1247 13.796 14.2167 13.988 14.4007 14.132C14.5927 14.268 14.8527 14.336 15.1807 14.336C15.4927 14.336 15.7727 14.264 16.0207 14.12C16.2687 13.968 16.4487 13.748 16.5607 13.46L16.8487 14.324C16.7127 14.74 16.4647 15.056 16.1047 15.272C15.7447 15.488 15.2807 15.596 14.7127 15.596ZM20.127 15.5V9.044H21.915V10.868L21.663 10.34C21.855 9.884 22.163 9.54 22.587 9.308C23.011 9.068 23.527 8.948 24.135 8.948V10.676C24.055 10.668 23.983 10.664 23.919 10.664C23.855 10.656 23.787 10.652 23.715 10.652C23.203 10.652 22.787 10.8 22.467 11.096C22.155 11.384 21.999 11.836 21.999 12.452V15.5H20.127ZM27.4669 15.596C26.9149 15.596 26.3829 15.532 25.8709 15.404C25.3669 15.268 24.9669 15.1 24.6709 14.9L25.2949 13.556C25.5909 13.74 25.9389 13.892 26.3389 14.012C26.7469 14.124 27.1469 14.18 27.5389 14.18C27.9709 14.18 28.2749 14.128 28.4509 14.024C28.6349 13.92 28.7269 13.776 28.7269 13.592C28.7269 13.44 28.6549 13.328 28.5109 13.256C28.3749 13.176 28.1909 13.116 27.9589 13.076C27.7269 13.036 27.4709 12.996 27.1909 12.956C26.9189 12.916 26.6429 12.864 26.3629 12.8C26.0829 12.728 25.8269 12.624 25.5949 12.488C25.3629 12.352 25.1749 12.168 25.0309 11.936C24.8949 11.704 24.8269 11.404 24.8269 11.036C24.8269 10.628 24.9429 10.268 25.1749 9.956C25.4149 9.644 25.7589 9.4 26.2069 9.224C26.6549 9.04 27.1909 8.948 27.8149 8.948C28.2549 8.948 28.7029 8.996 29.1589 9.092C29.6149 9.188 29.9949 9.328 30.2989 9.512L29.6749 10.844C29.3629 10.66 29.0469 10.536 28.7269 10.472C28.4149 10.4 28.1109 10.364 27.8149 10.364C27.3989 10.364 27.0949 10.42 26.9029 10.532C26.7109 10.644 26.6149 10.788 26.6149 10.964C26.6149 11.124 26.6829 11.244 26.8189 11.324C26.9629 11.404 27.1509 11.468 27.3829 11.516C27.6149 11.564 27.8669 11.608 28.1389 11.648C28.4189 11.68 28.6989 11.732 28.9789 11.804C29.2589 11.876 29.5109 11.98 29.7349 12.116C29.9669 12.244 30.1549 12.424 30.2989 12.656C30.4429 12.88 30.5149 13.176 30.5149 13.544C30.5149 13.944 30.3949 14.3 30.1549 14.612C29.9149 14.916 29.5669 15.156 29.1109 15.332C28.6629 15.508 28.1149 15.596 27.4669 15.596Z" fill="black"/>
<path d="M2.76689 15.5C1.43355 13.1667 -0.433115 8.3 2.76689 7.5C5.96689 6.7 8.10021 6.5 8.76688 6.5C9.43354 4.66667 10.9669 1 11.7669 1C12.7669 1 29.7669 1 30.2669 1C30.6669 1 31.4335 5.33333 31.7669 7.5V15.5" stroke="black"/>
</svg>
